inDegrees=no
num_controls=7
num_derivatives=13
num_iterations=171
num_multipliers=7
num_parameters=0
num_slacks=7
num_states=26
objective=0.551020
objective_accelerations=0.038329
objective_balance=0.003381
objective_effort=0.043042
objective_height=0.456768
objective_ligament=0.009500
solver_duration=2074.676284
status=Solve_Succeeded
success=true
DataType=double
version=3
OpenSimVersion=4.5
endheader
time	/jointset/ground_pelvis/pelvis_tilt/value	/jointset/ground_pelvis/pelvis_tx/value	/jointset/ground_pelvis/pelvis_ty/value	/jointset/hip_r/hip_flexion_r/value	/jointset/hip_r/hip_adduction_r/value	/jointset/hip_r/hip_rotation_r/value	/jointset/back/lumbar_extension/value	/jointset/patellofemoral_r/patellar_flexion_r/value	/jointset/knee_r/knee_flexion_r/value	/jointset/knee_r/knee_adduction_r/value	/jointset/knee_r/knee_rotation_r/value	/jointset/ankle_r/ankle_angle_r/value	/jointset/subtalar_r/subtalar_angle_r/value	/jointset/ground_pelvis/pelvis_tilt/speed	/jointset/ground_pelvis/pelvis_tx/speed	/jointset/ground_pelvis/pelvis_ty/speed	/jointset/hip_r/hip_flexion_r/speed	/jointset/hip_r/hip_adduction_r/speed	/jointset/hip_r/hip_rotation_r/speed	/jointset/back/lumbar_extension/speed	/jointset/patellofemoral_r/patellar_flexion_r/speed	/jointset/knee_r/knee_flexion_r/speed	/jointset/knee_r/knee_adduction_r/speed	/jointset/knee_r/knee_rotation_r/speed	/jointset/ankle_r/ankle_angle_r/speed	/jointset/subtalar_r/subtalar_angle_r/speed	/forceset/tau_hip_flexion_r	/forceset/tau_hip_adduction_r	/forceset/tau_hip_rotation_r	/forceset/tau_knee_flexion_r	/forceset/tau_ankle_angle_r	/forceset/tau_subtalar_angle_r	/forceset/tau_lumbar_extension	lambda_cid13_p0	lambda_cid14_p0	lambda_cid14_p1	lambda_cid14_p2	lambda_cid14_p3	lambda_cid14_p4	lambda_cid14_p5	/jointset/ground_pelvis/pelvis_tilt/accel	/jointset/ground_pelvis/pelvis_tx/accel	/jointset/ground_pelvis/pelvis_ty/accel	/jointset/hip_r/hip_flexion_r/accel	/jointset/hip_r/hip_adduction_r/accel	/jointset/hip_r/hip_rotation_r/accel	/jointset/back/lumbar_extension/accel	/jointset/patellofemoral_r/patellar_flexion_r/accel	/jointset/knee_r/knee_flexion_r/accel	/jointset/knee_r/knee_adduction_r/accel	/jointset/knee_r/knee_rotation_r/accel	/jointset/ankle_r/ankle_angle_r/accel	/jointset/subtalar_r/subtalar_angle_r/accel	gamma_cid13_p0	gamma_cid14_p0	gamma_cid14_p1	gamma_cid14_p2	gamma_cid14_p3	gamma_cid14_p4	gamma_cid14_p5
1.5	-0.1687189465475288	0.03023677974272021	0.8590760646383443	0.778858555469425	-0.2251569190482101	-0.143290985693679	-0.2922345702322414	0.6547810370225169	0.6547810370225146	0.03511757508707852	0.1744099340719804	0.2141151697398643	0.04907980786361697	0.4032264569458548	0.1914802684634427	0.3669357266289263	-1.746857811218646	0.01720173090524694	-0.2869140982514359	0.7049320362834467	-1.747076754285735	-1.747076754285772	0.2727191214018688	0.0004396045692192787	-0.4865125288092748	-0.1103515825237519	-0.1048467113074027	-0.03045647859637699	0.007559187072568753	-0.313636739262999	0.0856956710855114	-0.003105018287919865	0.1494868895922597	-33.83451124163302	-13.87249934744281	0.8762355543421322	-4.995394259141886	0.4178822421591382	-660.8218219011347	66.53659282714571	0.1462022152546458	0.401277536427987	-0.4416357405533947	-0.9558584038279154	-0.01646089456407708	-0.5020136751160248	1.442122704948885	-1.140863191240195	-1.140863191240187	0.4819896636337368	0.004875740713066531	-0.4632313429697249	-0.08743577396328081	1.090526117572114e-07	1.564417072933175e-07	-4.161573837695829e-07	1.125545315431113e-06	-4.009848586614411e-08	2.008480374613864e-07	-5.677073369369121e-07
1.51	-0.1646798542068292	0.03217137739334849	0.8627225240026531	0.7613443592719258	-0.2249865432957263	-0.1461840566646197	-0.285114307921152	0.6372556603995001	0.6372556603994897	0.03787087323675101	0.174414554724777	0.2092273124685443	0.04797100283085617	0.4045337498851827	0.1954088759555638	0.3622760919453824	-1.755731555865375	0.01687059081772987	-0.2916807925824243	0.7190086183186843	-1.75774107409276	-1.757741074092817	0.2779265828115556	0.0004753625703221866	-0.4909874118360715	-0.1113909847180362	-0.0980884001396618	-0.03223559405165391	0.006870018997880597	-0.3104955649951375	0.08829223024503897	-0.003515143919759657	0.1434237751639511	-34.75130092285485	-12.86144979671503	0.9700854546570017	-5.118800370342067	0.1334508567139279	-657.1039326875092	66.74904020770953	0.1142713565856905	0.3840851006950003	-0.4900888646353529	-0.8156290355827543	-0.04171167376185789	-0.4608986205102173	1.373654810441247	-0.9906166136000508	-0.9906166136028527	0.5380361287087431	0.001786293707151084	-0.4288808427917464	-0.1093501644721703	1.18495146057956e-07	1.707891710789387e-07	-4.509335124120931e-07	1.225791631390786e-06	-4.465000559991579e-08	2.221037733379907e-07	-6.323781753594238e-07
1.52	-0.1606294332320742	0.0341443476679161	0.8663199947136506	0.743748926319861	-0.2248195331657013	-0.1491241748405538	-0.2778566340181844	0.6196313605307794	0.6196313605307614	0.04067582835033433	0.1744193050503658	0.2042968535549048	0.04685237223169029	0.4054921837570656	0.199154793251312	0.3571379959666182	-1.763105162131599	0.01652860641355928	-0.2963235392502123	0.7324143546591252	-1.766861403426437	-1.766861403426512	0.2830505141841457	0.0004655391273549332	-0.4950328572731522	-0.1123166958047667	-0.09133008897192188	-0.03401470950693038	0.006180850923201429	-0.3073543907272764	0.09088878940456653	-0.003925269551599565	0.1373606607356414	-35.63682331682081	-11.85884785102117	1.064669310210099	-5.244852267336786	-0.1505188607090728	-653.5218226764232	67.03511453479017	0.07643040176563233	0.3647394971534124	-0.5373279995974304	-0.6558307277271521	-0.01862975789478455	-0.4772241424759647	1.307953565989507	-0.8320650965704076	-0.8320650965704055	0.4652836562143737	-0.004240548100965696	-0.3773438250265095	-0.06469755245249886	1.277640997588009e-07	1.783675201091927e-07	-5.246926579526039e-07	1.282795888652364e-06	-4.122821886746078e-08	2.37587218798575e-07	-7.022753138321819e-07
1.53	-0.156571214588831	0.03615381977581872	0.8698637515170979	0.7260873085790078	-0.2246560507538227	-0.1521103923066366	-0.2704683838868289	0.6019236153010197	0.6019236153010086	0.04353152439401849	0.1744240041577361	0.1993280911915142	0.04572499526339474	0.4060894612876083	0.2027043305423852	0.3515394017155318	-1.768959362044283	0.01616674694494118	-0.3009053369158245	0.7451092564882991	-1.774422705606826	-1.774422705606889	0.288065891148489	0.0004705546033544573	-0.4986447894979276	-0.1131378917953109	-0.08442664289739762	-0.03604673615756914	0.005515686583447061	-0.3044561483883002	0.09377950476243763	-0.00443595258703981	0.1311888720512443	-36.48643976954531	-10.7768943157246	1.125078811388965	-5.360433471155638	-0.4551303306587558	-650.0847692500291	67.32463479694447	0.04208149795689453	0.3447615835752212	-0.5821692002854569	-0.5113384801291844	-0.04500056845419737	-0.4462417940581627	1.23129622281793	-0.6784505833752731	-0.6784505833735709	0.5162165225652504	0.002552477565580898	-0.3418800932540211	-0.08766728176256633	1.368486240722523e-07	1.787536847118692e-07	-6.398712589472399e-07	1.293855458547215e-06	-2.933479401463999e-08	2.469376056921379e-07	-7.777253961083265e-07
1.54	-0.1525088821564312	0.03819772740433022	0.8733493135655501	0.7083749240676093	-0.2244961942420517	-0.1551419445924663	-0.2629569771908944	0.5841481994885349	0.5841481994885322	0.04643668456855002	0.1744286893962914	0.1943254570714657	0.04459003900331233	0.4063149415884856	0.2060418973730901	0.3454990449675934	-1.773258516240575	0.01580342639196753	-0.30539050319961	0.7570456675749384	-1.780395519971304	-1.780395519971356	0.2929433403536696	0.0004627653639606706	-0.5018072086047415	-0.1138325541621422	-0.07752319682287422	-0.03807876280820708	0.004850522243704576	-0.3015579060493244	0.09667022012030897	-0.004946635622479248	0.1250170833668463	-37.29550350052596	-9.70411470375422	1.186275570239299	-5.478875057295425	-0.7578312614032005	-646.7959180558895	67.69281194956424	0.002070955832582256	0.3223454050797813	-0.6256804989678376	-0.344821584448884	-0.0189219747658991	-0.4578978661106365	1.156255417482602	-0.5143675333884269	-0.5143675333884264	0.4376981043818761	-0.006801491179627249	-0.2874412014341963	-0.03939082770990603	1.459639424815329e-07	1.785209055093929e-07	-7.547484847360146e-07	1.301170501239616e-06	-1.704968117786012e-08	2.544340080988582e-07	-8.498311874455671e-07
1.55	-0.1484461763926466	0.04027391270067612	0.8767723306374227	0.6906273509562679	-0.2243400466366475	-0.1582180280870243	-0.2553300601969352	0.566321045841128	0.56632104584113	0.04938995297940452	0.1744334262893822	0.1892934556200958	0.04344869258895782	0.4061633963175471	0.2091556776831289	0.339037549075471	-1.775992212744019	0.01542354571742073	-0.309801897273681	0.7682022449710137	-1.784762949344519	-1.784762949344572	0.29769093410941	0.0004777043018327319	-0.5045149432179921	-0.1144177221662315	-0.07060165734307133	-0.04028089023488825	0.004204521447799071	-0.2987625051867809	0.0996739508488708	-0.005579683260367774	0.1188470808589231	-38.05937183822172	-8.613884770453103	1.192275862135773	-5.582680316853473	-1.044517782520781	-643.7030729004304	68.01293158110857	-0.0331721148586137	0.2999722645605656	-0.6663546296030211	-0.198037498954507	-0.04779531157168302	-0.4288752677330702	1.075035963776128	-0.3571236541586504	-0.3571236541587733	0.4903216077627347	0.004846500379638088	-0.2506999633025203	-0.06522202077150401	1.551147410447035e-07	1.775749954009796e-07	-8.692784738745576e-07	1.304171197372672e-06	-4.313275663910011e-09	2.597942979446513e-07	-9.180837740053751e-07
